<?xml version="1.0" encoding="utf-8"?>
<!-- Generator: Adobe Illustrator 18.0.0, SVG Export Plug-In . SVG Version: 6.00 Build 0)  -->
<!DOCTYPE svg PUBLIC "-//W3C//DTD SVG 1.1//EN" "http://www.w3.org/Graphics/SVG/1.1/DTD/svg11.dtd">
<svg version="1.1" id="Capa_1" xmlns="http://www.w3.org/2000/svg" xmlns:xlink="http://www.w3.org/1999/xlink" x="0px" y="0px"
	 viewBox="0 0 93.3 67.9" enable-background="new 0 0 93.3 67.9" xml:space="preserve">
<g>
	<circle fill="none" stroke="#E87723" stroke-width="1.3559" stroke-miterlimit="10" cx="24.7" cy="45.1" r="15.5"/>
	<g>
		
			<line fill="none" stroke="#E87723" stroke-width="0.6779" stroke-linecap="round" stroke-miterlimit="10" x1="24.5" y1="46.9" x2="24.5" y2="60.4"/>
		
			<line fill="none" stroke="#E87723" stroke-width="0.6779" stroke-linecap="round" stroke-miterlimit="10" x1="24.5" y1="29.8" x2="24.5" y2="43.3"/>
		
			<line fill="none" stroke="#E87723" stroke-width="0.6779" stroke-linecap="round" stroke-miterlimit="10" x1="25.8" y1="46.4" x2="35.4" y2="56"/>
		
			<line fill="none" stroke="#E87723" stroke-width="0.6779" stroke-linecap="round" stroke-miterlimit="10" x1="13.8" y1="34.4" x2="23.3" y2="43.9"/>
		
			<line fill="none" stroke="#E87723" stroke-width="0.6779" stroke-linecap="round" stroke-miterlimit="10" x1="26.5" y1="45.2" x2="40" y2="45.2"/>
		
			<line fill="none" stroke="#E87723" stroke-width="0.6779" stroke-linecap="round" stroke-miterlimit="10" x1="9.4" y1="45.2" x2="22.9" y2="45.2"/>
		
			<line fill="none" stroke="#E87723" stroke-width="0.6779" stroke-linecap="round" stroke-miterlimit="10" x1="26" y1="43.8" x2="35.5" y2="34.3"/>
		
			<line fill="none" stroke="#E87723" stroke-width="0.6779" stroke-linecap="round" stroke-miterlimit="10" x1="13.9" y1="55.9" x2="23.5" y2="46.3"/>
	</g>
	<path fill="#E87723" d="M21.9,32.7h-4.5c-0.4,0-0.8-0.4-0.8-0.8v-2.9c0-0.4,0.4-0.8,0.8-0.8h4.5c0.4,0,0.8,0.4,0.8,0.8v2.9
		C22.7,32.3,22.3,32.7,21.9,32.7z"/>
	<path fill="#E87723" d="M12.2,41.8H7.8C7.3,41.8,7,41.4,7,41V38c0-0.4,0.4-0.8,0.8-0.8h4.5c0.4,0,0.8,0.4,0.8,0.8V41
		C13,41.4,12.7,41.8,12.2,41.8z"/>
	<path fill="#E87723" d="M12,53.2H7.6c-0.4,0-0.8-0.4-0.8-0.8v-2.9c0-0.4,0.4-0.8,0.8-0.8H12c0.4,0,0.8,0.4,0.8,0.8v2.9
		C12.8,52.8,12.5,53.2,12,53.2z"/>
	<g>
		<path fill="#E87723" d="M59.5,6.1c0,0,0.2,0.2,0.7,0.4c0.2,0.2,0.5,0.3,0.8,0.5c0.3,0.2,0.6,0.5,1,0.8c0.3,0.3,0.7,0.7,1,1.1
			c0.3,0.4,0.7,0.8,1,1.3c0.3,0.5,0.6,1,0.9,1.5c0.3,0.5,0.5,1.1,0.7,1.7c0.2,0.6,0.4,1.1,0.5,1.7c0.2,0.6,0.3,1.1,0.4,1.7
			c0.1,0.6,0.2,1.1,0.2,1.6c0,0.5,0.1,1,0.1,1.4c0,0.9,0,1.6-0.1,2.2c-0.1,0.5-0.1,0.8-0.1,0.8s0-0.3,0-0.8c0-0.5,0-1.3-0.1-2.1
			c0-0.4-0.1-0.9-0.2-1.4c-0.1-0.5-0.2-1-0.3-1.6c-0.1-0.5-0.3-1.1-0.5-1.6c-0.2-0.6-0.4-1.1-0.6-1.6c-0.3-0.5-0.5-1.1-0.8-1.5
			c-0.3-0.5-0.6-0.9-1-1.4c-0.3-0.4-0.7-0.8-1-1.2c-0.4-0.3-0.7-0.6-1-0.9c-0.3-0.2-0.7-0.5-0.9-0.7c-0.3-0.2-0.6-0.3-0.8-0.5
			c-0.5-0.3-0.7-0.4-0.7-0.4c-0.3-0.2-0.4-0.6-0.3-0.9S59.1,5.9,59.5,6.1C59.5,6.1,59.5,6.1,59.5,6.1z"/>
	</g>
	<g>
		<path fill="#FDE5C5" d="M67.1,0.3c0,0,0.2,0.3,0.6,0.7c0.2,0.2,0.4,0.5,0.6,0.9c0.2,0.4,0.5,0.8,0.8,1.2c0.2,0.5,0.5,1,0.8,1.5
			c0.2,0.6,0.5,1.1,0.6,1.8c0.2,0.6,0.3,1.3,0.4,2c0.1,0.7,0.2,1.4,0.1,2.1c0,0.7-0.1,1.4-0.1,2c-0.1,0.7-0.2,1.3-0.3,1.9
			c-0.2,1.2-0.5,2.4-0.8,3.4C69.4,19.7,69,21,69,21s0.3-1.3,0.6-3.3c0.2-1,0.4-2.1,0.6-3.4c0.1-0.6,0.1-1.3,0.2-1.9c0-0.7,0-1.3,0-2
			c0-0.7-0.1-1.3-0.2-1.9c-0.2-0.6-0.3-1.2-0.5-1.8c-0.2-0.6-0.5-1.1-0.7-1.6c-0.3-0.5-0.6-0.9-0.8-1.4c-0.3-0.4-0.5-0.7-0.8-1.1
			c-0.2-0.3-0.5-0.6-0.7-0.8c-0.4-0.4-0.6-0.7-0.6-0.7c-0.2-0.3-0.2-0.7,0.1-1C66.4-0.1,66.8-0.1,67.1,0.3
			C67.1,0.2,67.1,0.3,67.1,0.3z"/>
	</g>
	<g>
		<path fill="#E87723" d="M83.2,11.4c0,0-0.3,0.1-0.8,0.1c-0.2,0.1-0.6,0.1-0.9,0.2c-0.3,0.1-0.7,0.2-1.1,0.3
			c-0.4,0.2-0.8,0.3-1.3,0.5c-0.4,0.2-0.9,0.4-1.3,0.8c-0.5,0.3-0.9,0.6-1.3,1c-0.5,0.3-0.9,0.8-1.3,1.2c-0.4,0.4-0.8,0.9-1.1,1.3
			c-0.4,0.4-0.7,0.9-1,1.4c-0.3,0.5-0.6,0.9-0.8,1.4c-0.2,0.4-0.4,0.9-0.6,1.3c-0.4,0.8-0.6,1.5-0.8,2c-0.2,0.5-0.2,0.8-0.2,0.8
			s0.1-0.3,0.2-0.8c0.1-0.5,0.3-1.2,0.6-2.1c0.2-0.4,0.3-0.9,0.5-1.3c0.2-0.5,0.5-1,0.7-1.5c0.3-0.5,0.6-1,0.9-1.5
			c0.3-0.5,0.7-1,1.1-1.5c0.4-0.4,0.8-0.9,1.2-1.3c0.4-0.4,0.9-0.8,1.4-1.1c0.4-0.4,0.9-0.6,1.4-0.9c0.5-0.3,0.9-0.5,1.3-0.7
			c0.4-0.2,0.9-0.3,1.2-0.4c0.4-0.1,0.7-0.2,0.9-0.3C82.7,10.1,83,10,83,10c0.4-0.1,0.7,0.1,0.8,0.5C83.9,10.9,83.7,11.3,83.2,11.4
			C83.3,11.4,83.3,11.4,83.2,11.4z"/>
	</g>
	<g>
		<path fill="#FDE5C5" d="M64.4,7c0,0,0.1,0.1,0.3,0.3c0.2,0.2,0.4,0.5,0.7,0.8c0.6,0.7,1.3,1.7,1.7,2.7c0.5,1.1,0.7,2.2,0.7,3.1
			c0,0.9-0.1,1.4-0.1,1.4s0-0.6-0.2-1.4c-0.2-0.8-0.5-1.9-1.1-2.8c-0.6-0.9-1.3-1.7-1.9-2.3c-0.3-0.3-0.5-0.5-0.8-0.6
			C63.7,8.1,63.6,8,63.6,8c-0.3-0.2-0.4-0.6-0.1-0.9C63.6,6.8,64.1,6.7,64.4,7C64.4,6.9,64.4,7,64.4,7z"/>
	</g>
	<g>
		<path fill="#E87723" d="M64.2,2.2c0,0,0.1,0.1,0.3,0.2c0.2,0.1,0.5,0.4,0.8,0.7c0.7,0.6,1.4,1.5,2,2.5c0.6,1,0.9,2.1,1.1,3
			c0.1,0.8,0.1,1.4,0.1,1.4s-0.1-0.6-0.3-1.4c-0.3-0.8-0.7-1.8-1.4-2.7c-0.7-0.9-1.5-1.6-2.2-2c-0.3-0.2-0.6-0.4-0.8-0.5
			c-0.2-0.1-0.3-0.2-0.3-0.2c-0.3-0.2-0.4-0.6-0.3-0.9C63.4,2.1,63.8,2,64.2,2.2C64.1,2.2,64.2,2.2,64.2,2.2z"/>
	</g>
	<g>
		<path fill="#FDE5C5" d="M83,7.8c0,0-0.2,0-0.4,0.1c-0.1,0-0.3,0-0.5,0.1C82,7.9,81.8,8,81.6,8c-0.8,0.2-1.9,0.6-3,1.2
			c-1,0.6-2,1.4-2.6,2c-0.7,0.6-1.1,1.1-1.1,1.1s0.3-0.5,0.9-1.2c0.6-0.7,1.4-1.6,2.4-2.4c1-0.8,2.1-1.4,3-1.8
			c0.4-0.2,0.9-0.3,1.1-0.4c0.3-0.1,0.4-0.1,0.4-0.1c0.4-0.1,0.7,0.1,0.8,0.5C83.7,7.3,83.4,7.7,83,7.8C83.1,7.8,83,7.8,83,7.8z"/>
	</g>
	<g>
		<path fill="#E87723" d="M72.8,5.5c0,0,0,0.2,0.1,0.4c0.1,0.3,0.2,0.8,0.3,1.3c0.2,1,0.2,2.4,0.1,3.8c-0.1,1.4-0.4,2.7-0.7,3.6
			c-0.3,1-0.6,1.6-0.6,1.6s0.2-0.6,0.4-1.6c0.2-1,0.3-2.3,0.3-3.6c0-1.3-0.2-2.6-0.5-3.5c-0.1-0.5-0.3-0.8-0.4-1.1
			C71.6,6.1,71.5,6,71.5,6c-0.2-0.3,0-0.7,0.3-0.9C72.2,4.9,72.6,5.1,72.8,5.5C72.8,5.4,72.8,5.5,72.8,5.5z"/>
	</g>
	<g>
		<path fill="#E87723" d="M82.7,4c0,0-0.1,0-0.4,0.1c-0.1,0-0.3,0-0.4,0.1c-0.2,0-0.3,0.1-0.5,0.1c-0.8,0.2-1.8,0.7-2.6,1.5
			c-0.9,0.7-1.6,1.7-2.1,2.4c-0.5,0.7-0.8,1.2-0.8,1.2s0.2-0.5,0.6-1.3c0.4-0.8,1-1.8,1.8-2.7c0.4-0.5,0.8-0.9,1.3-1.2
			c0.5-0.4,0.9-0.6,1.4-0.8c0.4-0.2,0.8-0.4,1.1-0.4c0.2-0.1,0.4-0.1,0.4-0.1c0.4-0.1,0.7,0.1,0.9,0.4C83.3,3.5,83.1,3.9,82.7,4
			C82.7,4,82.7,4,82.7,4z"/>
	</g>
	<g>
		<path fill="#FDE5C5" d="M75,1.8c0,0,0,0.1,0.1,0.3c0,0.1,0.1,0.3,0.1,0.4c0,0.2,0.1,0.3,0.1,0.5c0.1,0.8,0.1,1.8,0.1,2.9
			c-0.1,2.1-0.7,4-0.7,4s0.3-2,0.1-4c-0.1-1-0.3-1.9-0.5-2.6c-0.1-0.2-0.1-0.3-0.2-0.4C74,2.8,74,2.7,73.9,2.6
			c-0.1-0.2-0.2-0.3-0.2-0.3c-0.2-0.3,0-0.7,0.3-0.9c0.3-0.2,0.7,0,0.9,0.3C75,1.7,75,1.7,75,1.8z"/>
	</g>
	
		<line fill="none" stroke="#FDE5C5" stroke-width="0.4228" stroke-linecap="round" stroke-linejoin="round" stroke-miterlimit="10" x1="59" y1="9.9" x2="59.9" y2="11.3"/>
	
		<line fill="none" stroke="#FDE5C5" stroke-width="0.4228" stroke-linecap="round" stroke-linejoin="round" stroke-miterlimit="10" x1="58.8" y1="11.1" x2="60.1" y2="10.1"/>
	
		<line fill="none" stroke="#E87723" stroke-width="0.4228" stroke-linecap="round" stroke-linejoin="round" stroke-miterlimit="10" x1="60.9" y1="3.4" x2="61.9" y2="4.7"/>
	
		<line fill="none" stroke="#E87723" stroke-width="0.4228" stroke-linecap="round" stroke-linejoin="round" stroke-miterlimit="10" x1="60.7" y1="4.5" x2="62.1" y2="3.6"/>
	
		<line fill="none" stroke="#FDE5C5" stroke-width="0.4228" stroke-linecap="round" stroke-linejoin="round" stroke-miterlimit="10" x1="70.3" y1="0.3" x2="71.3" y2="1.6"/>
	
		<line fill="none" stroke="#FDE5C5" stroke-width="0.4228" stroke-linecap="round" stroke-linejoin="round" stroke-miterlimit="10" x1="70.1" y1="1.4" x2="71.5" y2="0.5"/>
	
		<line fill="none" stroke="#E87723" stroke-width="0.4228" stroke-linecap="round" stroke-linejoin="round" stroke-miterlimit="10" x1="82.1" y1="12.5" x2="83.1" y2="13.9"/>
	
		<line fill="none" stroke="#E87723" stroke-width="0.4228" stroke-linecap="round" stroke-linejoin="round" stroke-miterlimit="10" x1="81.9" y1="13.7" x2="83.3" y2="12.7"/>
	
		<line fill="none" stroke="#FDE5C5" stroke-width="0.4228" stroke-linecap="round" stroke-linejoin="round" stroke-miterlimit="10" x1="77.2" y1="16" x2="78.2" y2="17.3"/>
	
		<line fill="none" stroke="#FDE5C5" stroke-width="0.4228" stroke-linecap="round" stroke-linejoin="round" stroke-miterlimit="10" x1="77" y1="17.1" x2="78.4" y2="16.2"/>
	
		<line fill="none" stroke="#E87723" stroke-width="0.4228" stroke-linecap="round" stroke-linejoin="round" stroke-miterlimit="10" x1="77.7" y1="1.5" x2="78.7" y2="2.8"/>
	
		<line fill="none" stroke="#E87723" stroke-width="0.4228" stroke-linecap="round" stroke-linejoin="round" stroke-miterlimit="10" x1="77.5" y1="2.6" x2="78.9" y2="1.7"/>
	<path fill="#E87723" d="M40.9,9.5L40.9,9.5c0,0.1-0.1,0.2-0.2,0.3c-0.1,0.1-0.2,0.1-0.3,0l-6-2.2c-0.1,0-0.1-0.1-0.2-0.1
		c0-0.1-0.1-0.1-0.1-0.2L35,0.8c0-0.1,0.1-0.2,0.2-0.2c0.1-0.1,0.2-0.1,0.3,0l6,2.2c0.1,0,0.2,0.1,0.2,0.2c0,0.1,0.1,0.1,0,0.2
		L40.9,9.5z"/>
	<g>
		<g>
			<path fill="none" stroke="#B45B18" stroke-width="0.4228" stroke-linecap="round" stroke-linejoin="round" d="M41.2,10.2
				c0.1,0.1,0.1,0.3,0.2,0.4"/>
			
				<path fill="none" stroke="#B45B18" stroke-width="0.4228" stroke-linecap="round" stroke-linejoin="round" stroke-dasharray="0.8431,0.8431" d="
				M41.7,11.3c2.3,5.9-3.2,8.5-2.4,15.1c0.8,6.6,6.8,7.9,10.8,10.7"/>
			<path fill="none" stroke="#B45B18" stroke-width="0.4228" stroke-linecap="round" stroke-linejoin="round" d="M50.5,37.4
				c0.1,0.1,0.2,0.2,0.3,0.3"/>
		</g>
	</g>
	<g>
		<path fill="#254650" d="M23.6,22.6l11.3,0.1l7.3,27.7l8-27.6l9.8,0.1l7.6,27.7L75.3,23L86.6,23L72.7,66.8l-10.3-0.1L55,41.6
			l-7.8,25.1l-10.3-0.1L23.6,22.6z"/>
	</g>
	<path fill="#FDE5C5" d="M37.9,5.2l-3.7,2.2c0-0.1-0.1-0.1-0.1-0.2L35,0.8c0-0.1,0.1-0.2,0.2-0.2L37.9,5.2z"/>
	<path fill="#FDE5C5" d="M40.9,9.5L40.9,9.5c0,0.1-0.1,0.2-0.2,0.3l-2.8-4.6l3.7-2.3c0,0.1,0.1,0.1,0,0.2L40.9,9.5z"/>
	<g>
		
			<line fill="none" stroke="#B45B18" stroke-width="1.3559" stroke-linecap="round" stroke-miterlimit="10" x1="25.7" y1="46.7" x2="32" y2="62.1"/>
		
			<line fill="none" stroke="#B45B18" stroke-width="1.3559" stroke-linecap="round" stroke-miterlimit="10" x1="23.6" y1="46.7" x2="17.3" y2="62.1"/>
	</g>
	<circle fill="none" stroke="#B45B18" stroke-width="1.3559" stroke-miterlimit="10" cx="24.7" cy="45.1" r="1.7"/>
	<path fill="#FDE5C5" d="M2,65c3.9-0.4,13.4-3.2,18.6-3.2s24.7,1.4,29.3,1.3s17.6-3.9,23-3.1c5.4,0.8,13.7,5.5,18,5.8
		c2.5,0.1,5.2,2-4.5,2.1C76.7,68,47.5,66.6,32.7,67C18.4,67.4,5,66.9,2.9,66.9S-1.9,65.5,2,65z"/>
	
		<line fill="none" stroke="#B45B18" stroke-width="0.8457" stroke-linecap="round" stroke-miterlimit="10" x1="74.5" y1="52.1" x2="69.6" y2="65.6"/>
	<path fill="#E87723" d="M64.2,53.8c1.7-4.7,7-7.1,11.7-5.4c4.7,1.7,7.1,7,5.4,11.7c0,0-0.6-1.1-1.8-1.5c-1.2-0.4-2.3,0-2.3,0
		s-0.2-1.1-1.9-1.7c-1.6-0.6-2.5,0-2.5,0s-0.5-1.2-1.9-1.7c-1.3-0.5-2.5,0.1-2.5,0.1s-0.7-1.1-1.9-1.6
		C65.3,53.2,64.2,53.8,64.2,53.8z"/>
	<path fill="#FDE5C5" d="M68.7,54.2c-0.1,0.4-0.2,0.7-0.3,1.1c0,0,0,0,0,0s-0.7-1.1-1.9-1.6c-1.2-0.5-2.3,0.1-2.3,0.1
		c1.7-4.7,7-7.2,11.7-5.4l0,0C72.8,48.8,69.9,51,68.7,54.2z"/>
	<path fill="#FDE5C5" d="M76,48.4l-3.1,8.5c0.3-0.1,1.1-0.5,2.4,0s1.9,1.6,1.9,1.7c0.2-0.3,0.3-0.7,0.4-1
		C78.8,54.3,78.1,50.8,76,48.4z"/>
</g>
</svg>
