<?xml version="1.0" encoding="utf-8"?>
<!-- Generator: Adobe Illustrator 18.0.0, SVG Export Plug-In . SVG Version: 6.00 Build 0)  -->
<!DOCTYPE svg PUBLIC "-//W3C//DTD SVG 1.1//EN" "http://www.w3.org/Graphics/SVG/1.1/DTD/svg11.dtd">
<svg version="1.1" id="Capa_1" xmlns="http://www.w3.org/2000/svg" xmlns:xlink="http://www.w3.org/1999/xlink" x="0px" y="0px"
	 viewBox="0 0 104.1 80.4" enable-background="new 0 0 104.1 80.4" xml:space="preserve">
<g>
	<path fill="#E87723" d="M34.5,65.9c0.3-0.6,0.5-1.2,0.5-1.9c0-1.1-0.5-2.2-1.3-2.8c0.5-0.6,0.8-1.3,0.8-2c0-1.8-1.4-3.2-3.2-3.2
		c-0.7,0-1.3,0.2-1.8,0.6c-0.7-1.2-2-2-3.5-2c-2.2,0-4.1,1.8-4.1,4.1c0,0.7,0.2,1.3,0.5,1.9c-0.2,0-0.3,0-0.5,0
		c-2.1,0-3.8,1.4-4.3,3.3c-0.3-0.1-0.6-0.2-0.9-0.2c-0.8,0-1.4,0.4-1.9,0.9c-0.5-0.9-1.5-1.5-2.6-1.5c-1.6,0-3,1.3-3,3
		c0,0.3,0,0.6,0.1,0.8c-0.1,0-0.1,0-0.2,0c-1.6,0-2.9,1.3-2.9,2.9c0,1.4,1.1,2.6,2.4,2.9v0h26.4v-0.1c1.5-0.3,2.6-1.6,2.6-3.2
		C37.7,67.4,36.3,66,34.5,65.9z"/>
	<path fill="#E87723" d="M54.1,73.8c-0.3-0.6-0.5-1.2-0.5-1.9c0-1.1,0.5-2.2,1.3-2.8c-0.5-0.6-0.8-1.3-0.8-2c0-1.8,1.4-3.2,3.2-3.2
		c0.7,0,1.3,0.2,1.8,0.6c0.7-1.2,2-2,3.5-2c2.2,0,4.1,1.8,4.1,4.1c0,0.7-0.2,1.3-0.5,1.9c0.2,0,0.3,0,0.5,0c2.1,0,3.8,1.4,4.3,3.3
		c0.3-0.1,0.6-0.2,0.9-0.2c0.8,0,1.4,0.4,1.9,0.9c0.5-0.9,1.5-1.5,2.6-1.5c1.6,0,3,1.3,3,3c0,0.3,0,0.6-0.1,0.8c0.1,0,0.1,0,0.2,0
		c1.6,0,2.9,1.3,2.9,2.9c0,1.4-1.1,2.6-2.4,2.9v0H53.5v-0.1c-1.5-0.3-2.6-1.6-2.6-3.2C50.9,75.3,52.3,73.9,54.1,73.8z"/>
	<path fill="#FDE5C5" d="M70.6,25.7c0.1-0.2,0.1-0.5,0.1-0.7c0-1.8-1.5-3.3-3.3-3.3c-0.4,0-0.7,0.1-1,0.2c-0.6-1.1-1.7-1.8-3-1.8
		c-1.3,0-2.4,0.7-2.9,1.7c-0.9-0.8-2-1.2-3.3-1.2c-2.6,0-4.7,1.9-5.1,4.3c-0.3-0.1-0.6-0.1-0.9-0.1c-1.8,0-3.2,1.3-3.5,3
		c-0.4-0.2-0.8-0.3-1.3-0.3c-1.8,0-3.3,1.5-3.3,3.3c0,1.6,1.2,3,2.8,3.2v0h22.8v0c0.1,0,0.2,0,0.3,0c2.4,0,4.3-1.9,4.3-4.3
		C73.3,27.8,72.2,26.3,70.6,25.7z"/>
	<g>
		<path fill="#254650" d="M23.4,30.7h11.3l7.5,27.7L50,30.7h9.8l7.8,27.7l7.5-27.7h11.3L72.8,74.6H62.5l-7.6-25.1l-7.6,25.1H37
			L23.4,30.7z"/>
	</g>
	
		<line fill="none" stroke="#E87723" stroke-width="0.4228" stroke-linecap="round" stroke-linejoin="round" stroke-miterlimit="10" x1="73" y1="16.6" x2="74" y2="18"/>
	
		<line fill="none" stroke="#E87723" stroke-width="0.4228" stroke-linecap="round" stroke-linejoin="round" stroke-miterlimit="10" x1="72.8" y1="17.8" x2="74.2" y2="16.8"/>
	
		<line fill="none" stroke="#E87723" stroke-width="0.4228" stroke-linecap="round" stroke-linejoin="round" stroke-miterlimit="10" x1="84.5" y1="0.2" x2="85.5" y2="1.6"/>
	
		<line fill="none" stroke="#E87723" stroke-width="0.4228" stroke-linecap="round" stroke-linejoin="round" stroke-miterlimit="10" x1="84.3" y1="1.4" x2="85.7" y2="0.4"/>
	
		<line fill="none" stroke="#E87723" stroke-width="0.4228" stroke-linecap="round" stroke-linejoin="round" stroke-miterlimit="10" x1="83.4" y1="20" x2="84.4" y2="21.4"/>
	
		<line fill="none" stroke="#E87723" stroke-width="0.4228" stroke-linecap="round" stroke-linejoin="round" stroke-miterlimit="10" x1="83.2" y1="21.2" x2="84.6" y2="20.2"/>
	<g>
		
			<line fill="none" stroke="#E87723" stroke-width="0.4228" stroke-linecap="round" stroke-linejoin="round" stroke-miterlimit="10" x1="80.4" y1="10.3" x2="81.4" y2="11.6"/>
		
			<line fill="none" stroke="#E87723" stroke-width="0.4228" stroke-linecap="round" stroke-linejoin="round" stroke-miterlimit="10" x1="80.2" y1="11.4" x2="81.6" y2="10.5"/>
	</g>
	<g>
		
			<line fill="none" stroke="#E87723" stroke-width="0.4228" stroke-linecap="round" stroke-linejoin="round" stroke-miterlimit="10" x1="70.3" y1="7.7" x2="71.2" y2="9.1"/>
		
			<line fill="none" stroke="#E87723" stroke-width="0.4228" stroke-linecap="round" stroke-linejoin="round" stroke-miterlimit="10" x1="70.1" y1="8.9" x2="71.4" y2="7.9"/>
	</g>
	<g>
		
			<line fill="none" stroke="#E87723" stroke-width="0.4228" stroke-linecap="round" stroke-linejoin="round" stroke-miterlimit="10" x1="91.6" y1="6.1" x2="92.6" y2="7.5"/>
		
			<line fill="none" stroke="#E87723" stroke-width="0.4228" stroke-linecap="round" stroke-linejoin="round" stroke-miterlimit="10" x1="91.4" y1="7.3" x2="92.8" y2="6.3"/>
	</g>
	<g>
		
			<line fill="none" stroke="#E87723" stroke-width="0.4228" stroke-linecap="round" stroke-linejoin="round" stroke-miterlimit="10" x1="74" y1="0.8" x2="75" y2="2.2"/>
		
			<line fill="none" stroke="#E87723" stroke-width="0.4228" stroke-linecap="round" stroke-linejoin="round" stroke-miterlimit="10" x1="73.8" y1="2" x2="75.2" y2="1"/>
	</g>
	
		<line fill="none" stroke="#E87723" stroke-width="0.4228" stroke-linecap="round" stroke-linejoin="round" stroke-miterlimit="10" x1="96.9" y1="41.7" x2="97.9" y2="43"/>
	
		<line fill="none" stroke="#E87723" stroke-width="0.4228" stroke-linecap="round" stroke-linejoin="round" stroke-miterlimit="10" x1="96.7" y1="42.8" x2="98.1" y2="41.9"/>
	<g>
		
			<line fill="none" stroke="#E87723" stroke-width="0.4228" stroke-linecap="round" stroke-linejoin="round" stroke-miterlimit="10" x1="102.7" y1="20" x2="103.7" y2="21.4"/>
		
			<line fill="none" stroke="#E87723" stroke-width="0.4228" stroke-linecap="round" stroke-linejoin="round" stroke-miterlimit="10" x1="102.5" y1="21.2" x2="103.9" y2="20.2"/>
	</g>
	<g>
		
			<line fill="none" stroke="#E87723" stroke-width="0.4228" stroke-linecap="round" stroke-linejoin="round" stroke-miterlimit="10" x1="85.6" y1="45.7" x2="86.6" y2="47"/>
		
			<line fill="none" stroke="#E87723" stroke-width="0.4228" stroke-linecap="round" stroke-linejoin="round" stroke-miterlimit="10" x1="85.4" y1="46.9" x2="86.7" y2="45.9"/>
	</g>
	<g>
		
			<line fill="none" stroke="#E87723" stroke-width="0.4228" stroke-linecap="round" stroke-linejoin="round" stroke-miterlimit="10" x1="101.2" y1="9.3" x2="102.2" y2="10.7"/>
		
			<line fill="none" stroke="#E87723" stroke-width="0.4228" stroke-linecap="round" stroke-linejoin="round" stroke-miterlimit="10" x1="101" y1="10.5" x2="102.3" y2="9.5"/>
	</g>
	<g>
		
			<line fill="none" stroke="#E87723" stroke-width="0.4228" stroke-linecap="round" stroke-linejoin="round" stroke-miterlimit="10" x1="96.8" y1="30.1" x2="97.8" y2="31.5"/>
		
			<line fill="none" stroke="#E87723" stroke-width="0.4228" stroke-linecap="round" stroke-linejoin="round" stroke-miterlimit="10" x1="96.6" y1="31.3" x2="98" y2="30.3"/>
	</g>
	<g>
		
			<line fill="none" stroke="#E87723" stroke-width="0.4228" stroke-linecap="round" stroke-linejoin="round" stroke-miterlimit="10" x1="78.8" y1="26" x2="79.8" y2="27.3"/>
		
			<line fill="none" stroke="#E87723" stroke-width="0.4228" stroke-linecap="round" stroke-linejoin="round" stroke-miterlimit="10" x1="78.6" y1="27.1" x2="80" y2="26.2"/>
	</g>
	<g>
		
			<line fill="none" stroke="#E87723" stroke-width="0.4228" stroke-linecap="round" stroke-linejoin="round" stroke-miterlimit="10" x1="61.4" y1="12.9" x2="62.4" y2="14.2"/>
		
			<line fill="none" stroke="#E87723" stroke-width="0.4228" stroke-linecap="round" stroke-linejoin="round" stroke-miterlimit="10" x1="61.2" y1="14" x2="62.6" y2="13.1"/>
	</g>
	<g>
		
			<line fill="none" stroke="#E87723" stroke-width="0.4228" stroke-linecap="round" stroke-linejoin="round" stroke-miterlimit="10" x1="90.1" y1="37" x2="91.1" y2="38.4"/>
		
			<line fill="none" stroke="#E87723" stroke-width="0.4228" stroke-linecap="round" stroke-linejoin="round" stroke-miterlimit="10" x1="89.9" y1="38.2" x2="91.2" y2="37.2"/>
	</g>
	<path fill="#E87723" d="M94.9,14.2c3,3.2,2.8,8.2-0.4,11.2c-2.1,2-5,2.5-7.5,1.8c0.9-0.4,1.7-0.9,2.5-1.6c3.5-3.3,3.7-8.8,0.4-12.3
		c-0.6-0.6-1.2-1.1-1.8-1.5C90.5,11.5,93,12.3,94.9,14.2z"/>
	<circle fill="#E87723" cx="21.4" cy="42.2" r="8.9"/>
	<path fill="#FDE5C5" d="M0,57.8C0,55.7,1.7,54,3.7,54c0.3,0,0.6,0,0.9,0.1c0-0.1,0-0.2,0-0.3c0-3.2,2.6-5.9,5.9-5.9
		c1.7,0,3.3,0.8,4.4,2c0.8-0.7,1.8-1.2,3-1.2c0.9,0,1.7,0.3,2.4,0.7c1.1-2,3.2-3.3,5.6-3.3c3.5,0,6.4,2.9,6.4,6.4c0,0.1,0,0.2,0,0.3
		c0,0,0,0,0.1,0c2.4,0,4.3,1.9,4.3,4.3c0,2.4-1.9,4.3-4.3,4.3c0,0,0,0,0,0v0H3l0,0C1.3,61.2,0,59.6,0,57.8z"/>
	<path fill="#FDE5C5" d="M90.4,67.5c-0.3,0-0.5,0-0.8,0.1c0.1-0.4,0.1-0.8,0.1-1.2c0-3.1-2.5-5.6-5.6-5.6c-2.7,0-5,2-5.5,4.6
		c-0.2,0-0.4-0.1-0.6-0.1c-0.8,0-1.6,0.2-2.2,0.7c-0.9-1.8-2.7-3.1-4.9-3.1c-3,0-5.4,2.4-5.4,5.4c0,0.1,0,0.1,0,0.2
		c-0.4-0.2-0.9-0.3-1.4-0.3c-2.1,0-3.9,1.7-3.9,3.9c0,2.1,1.6,3.7,3.6,3.9v0h26.3v0c0.1,0,0.1,0,0.2,0c2.3,0,4.2-1.9,4.2-4.2
		C94.6,69.4,92.7,67.5,90.4,67.5z"/>
</g>
</svg>
