<?xml version="1.0" encoding="utf-8"?>
<!-- Generator: Adobe Illustrator 18.0.0, SVG Export Plug-In . SVG Version: 6.00 Build 0)  -->
<!DOCTYPE svg PUBLIC "-//W3C//DTD SVG 1.1//EN" "http://www.w3.org/Graphics/SVG/1.1/DTD/svg11.dtd">
<svg version="1.1" id="Capa_1" xmlns="http://www.w3.org/2000/svg" xmlns:xlink="http://www.w3.org/1999/xlink" x="0px" y="0px"
	 viewBox="0 0 99.9 81.7" enable-background="new 0 0 99.9 81.7" xml:space="preserve">
<g>
	<path fill="#FDE5C5" d="M7.4,66.6c-11.9,3.2-8.2,16.1,1.8,15c7.8-0.9,20.5-6.6,40-6.4c19.4,0.1,32.4,6.6,42.6,4.1s13.2-15.6-4.8-21
		"/>
	<path fill="#FDE5C5" d="M92.8,67.5l-80.2-0.3C17.3,57.6,26.8,39.4,33,28c3.3-6,5.6-9.4,5.9-9.4c0.8,0,4.5,2.9,5.2,2.9
		C44.8,21.6,55.6,0,56.3,0c0.8,0,10.2,16.7,10.9,16.7s3.1-0.8,3.9-0.8c0.3,0,2.3,4.6,5.5,11.8C83.3,42.6,92.1,66,92.8,67.5z"/>
	<g>
		<path fill="#254650" d="M19.2,27.5h11.3L38,55.1l7.8-27.7h9.8l7.8,27.7l7.5-27.7h11.3L68.6,71.3H58.3l-7.6-25.1l-7.6,25.1H32.8
			L19.2,27.5z"/>
	</g>
	<rect x="18.8" y="42" fill="#E87723" width="13.9" height="29.3"/>
	<rect x="7.2" y="54.8" fill="#E87723" width="10.4" height="19.1"/>
	<path fill="#FDE5C5" d="M4.5,70.8c4.6,1.7,14-1.1,20.8-2.1s11.5-2.6,25.7-2.8c24.2-0.4,33.1,3.3,40.9,5.6l-1.3,3.2l-53.1-2.5
		L7.1,74.7L4.5,70.8z"/>
	<path fill="#B45B18" d="M77.9,66.3c0.5-0.2,0.8-0.6,0.8-1.2c0-0.7-0.6-1.3-1.3-1.3c-0.2,0-0.3,0-0.5,0.1c-0.1-0.5-0.6-0.9-1.2-0.9
		c-0.2,0-0.3,0-0.5,0.1c-0.1-0.7-0.8-1.2-1.5-1.2c-0.7,0-1.3,0.5-1.5,1.1c-0.4-0.2-0.8-0.3-1.2-0.3c-1.3,0-2.4,1.1-2.4,2.4
		c0,1.2,0.9,2.2,2.1,2.3c0.2,1.1,1.1,1.9,2.3,1.9c0.5,0,1.1-0.2,1.5-0.5c0.2,0.2,0.5,0.4,0.8,0.4c0.6,0,1-0.4,1.1-1
		c0.2,0.2,0.5,0.4,0.9,0.4c0.7,0,1.3-0.6,1.3-1.3C78.6,67,78.3,66.5,77.9,66.3z"/>
	<path fill="#B45B18" d="M95.4,61.5c0.5-0.2,0.8-0.6,0.8-1.2c0-0.7-0.6-1.3-1.3-1.3c-0.2,0-0.3,0-0.5,0.1c-0.1-0.5-0.6-0.9-1.2-0.9
		c-0.2,0-0.3,0-0.5,0.1c-0.1-0.7-0.8-1.2-1.5-1.2c-0.7,0-1.3,0.5-1.5,1.1C89.4,58.1,89,58,88.6,58c-1.3,0-2.4,1.1-2.4,2.4
		c0,1.2,0.9,2.2,2.1,2.3c0.2,1.1,1.1,1.9,2.3,1.9c0.5,0,1.1-0.2,1.5-0.5c0.2,0.2,0.5,0.4,0.8,0.4c0.6,0,1-0.4,1.1-1
		c0.2,0.2,0.5,0.4,0.9,0.4c0.7,0,1.3-0.6,1.3-1.3C96.1,62.2,95.8,61.7,95.4,61.5z"/>
	<g>
		<path fill="#E87723" d="M70.1,63.1c0-0.6-0.5-1.1-1.1-1.1c-0.1,0-0.2,0-0.3,0c0-0.1,0-0.2,0-0.4c0-0.9-0.7-1.6-1.6-1.6
			c-0.7,0-1.3,0.5-1.5,1.2C65.5,61.1,65.3,61,65,61c-0.5,0-0.9,0.4-0.9,0.9c0,0.1,0,0.2,0.1,0.3c-0.2-0.1-0.5-0.2-0.8-0.1
			c-0.9,0.1-1.5,0.9-1.5,1.7c0,0.5,0.3,0.9,0.6,1.1c-0.7,0.1-1.2,0.7-1.2,1.4c0,0.8,0.6,1.4,1.4,1.4c0.6,0,1-0.3,1.3-0.8
			c0.3,0.2,0.6,0.3,1,0.3c0.5,0,1-0.3,1.3-0.6c0.4,0.5,1,0.9,1.7,0.9c1.1,0,2-0.9,2-2c0-0.5-0.2-1-0.5-1.4
			C69.8,63.9,70.1,63.5,70.1,63.1z"/>
	</g>
	<path fill="#B45B18" d="M80,68c0.2,0.3,0.5,0.5,0.8,0.6c0,0.2,0.1,0.4,0.3,0.6c0.5,0.8,1.6,0.9,2.4,0.4c0.2-0.2,0.4-0.4,0.5-0.6
		c0.4,0.3,0.9,0.4,1.3,0.1c0.2-0.1,0.3-0.3,0.4-0.5c0.5,0.4,1.2,0.4,1.7,0.1c0.6-0.4,0.7-1.1,0.5-1.7c0.2-0.1,0.5-0.2,0.7-0.3
		c0.9-0.7,1.1-1.9,0.5-2.8c-0.5-0.7-1.4-1-2.2-0.8c0-0.2-0.1-0.4-0.2-0.6c-0.5-0.6-1.3-0.8-2-0.3c-0.2,0.1-0.3,0.3-0.4,0.5
		c0,0,0-0.1-0.1-0.1c-0.3-0.5-1-0.6-1.5-0.2c-0.4,0.3-0.5,0.8-0.4,1.2c-0.3,0-0.6,0.1-0.8,0.3c-0.4,0.3-0.6,0.7-0.6,1.2
		c-0.2-0.1-0.5-0.1-0.7,0.1c-0.3,0.2-0.4,0.7-0.2,1.1c0,0.1,0.1,0.1,0.2,0.2C79.6,66.6,79.6,67.4,80,68z"/>
	<g>
		<g>
			<path fill="none" stroke="#B45B18" stroke-width="0.8133" stroke-linecap="round" stroke-miterlimit="10" d="M1,72.8
				C1,73,1.1,73.3,1.2,73.6"/>
			
				<path fill="none" stroke="#B45B18" stroke-width="0.8133" stroke-linecap="round" stroke-miterlimit="10" stroke-dasharray="1.6747,3.3494" d="
				M3.5,76c2.1,1.1,5.2,1.5,9,0.9c6.3-0.9,19.9-6.3,38.6-6.2s30.4,7.8,40.2,5.4c3-0.8,6-3.5,7-6.1"/>
			<path fill="none" stroke="#B45B18" stroke-width="0.8133" stroke-linecap="round" stroke-miterlimit="10" d="M98.7,68.3
				c0-0.3,0-0.6,0-0.8"/>
		</g>
	</g>
	<path fill="#FFFFFF" d="M56.9,2.6l2.9,12c0,0.1,0,0.1,0,0.2l-4.3,5.7c-0.1,0.1-0.1,0.2,0,0.2l6.3,6.8c0,0,0,0,0,0l2.4,1.4
		c0.1,0.1,0.3,0,0.3-0.1l2-11c0,0,0-0.1,0-0.1L57.2,2.4C57.1,2.2,56.8,2.4,56.9,2.6z"/>
	<path fill="#FFFFFF" d="M39.5,20.6l1.4,4.6c0,0.1,0,0.1,0,0.2l-2.1,3.5c0,0.1,0,0.1,0,0.2l0.8,5.8c0,0.2,0.4,0.3,0.5,0.1l4.5-7.6
		c0-0.1,0-0.1,0-0.2l-0.8-4.2c0-0.1-0.1-0.1-0.1-0.2l-3.8-2.4C39.7,20.2,39.4,20.3,39.5,20.6z"/>
	<g>
		<circle fill="#FDE5C5" cx="9.5" cy="56.9" r="0.8"/>
		<circle fill="#FDE5C5" cx="12.5" cy="56.9" r="0.8"/>
		<circle fill="#FDE5C5" cx="15.5" cy="56.9" r="0.8"/>
	</g>
	<g>
		<circle fill="#FDE5C5" cx="9.5" cy="59.6" r="0.8"/>
		<circle fill="#FDE5C5" cx="12.5" cy="59.6" r="0.8"/>
		<circle fill="#FDE5C5" cx="15.5" cy="59.6" r="0.8"/>
	</g>
	<g>
		<circle fill="#FDE5C5" cx="9.5" cy="62.2" r="0.8"/>
		<circle fill="#FDE5C5" cx="12.5" cy="62.2" r="0.8"/>
		<circle fill="#FDE5C5" cx="15.5" cy="62.2" r="0.8"/>
	</g>
	<g>
		<circle fill="#FDE5C5" cx="9.5" cy="64.8" r="0.8"/>
		<circle fill="#FDE5C5" cx="12.5" cy="64.8" r="0.8"/>
		<circle fill="#FDE5C5" cx="15.5" cy="64.8" r="0.8"/>
	</g>
	<g>
		<circle fill="#FDE5C5" cx="9.5" cy="67.5" r="0.8"/>
		<circle fill="#FDE5C5" cx="12.5" cy="67.5" r="0.8"/>
		<circle fill="#FDE5C5" cx="15.5" cy="67.5" r="0.8"/>
	</g>
	<g>
		<circle fill="#FDE5C5" cx="9.5" cy="70.1" r="0.8"/>
		<circle fill="#FDE5C5" cx="12.5" cy="70.1" r="0.8"/>
		<circle fill="#FDE5C5" cx="15.5" cy="70.1" r="0.8"/>
	</g>
	<path fill="#E87723" d="M85.7,64.2c-0.5,0.2-0.8,0.6-0.8,1.2c0,0.7,0.6,1.3,1.3,1.3c0.2,0,0.3,0,0.5-0.1c0.1,0.5,0.6,0.9,1.2,0.9
		c0.2,0,0.3,0,0.5-0.1c0.1,0.7,0.8,1.2,1.5,1.2c0.7,0,1.3-0.5,1.5-1.1c0.4,0.2,0.8,0.3,1.2,0.3c1.3,0,2.4-1.1,2.4-2.4
		c0-1.2-0.9-2.2-2.1-2.3c-0.2-1.1-1.1-1.9-2.3-1.9c-0.5,0-1.1,0.2-1.5,0.5c-0.2-0.2-0.5-0.4-0.8-0.4c-0.6,0-1,0.4-1.1,1
		c-0.2-0.2-0.5-0.4-0.9-0.4c-0.7,0-1.3,0.6-1.3,1.3C85,63.5,85.3,64,85.7,64.2z"/>
	<path fill="#E87723" d="M73.6,62.2c0,0.3,0.1,0.7,0.3,0.9c-0.1,0.2-0.1,0.4-0.1,0.7c0,0.9,0.8,1.7,1.7,1.7c0.3,0,0.6-0.1,0.8-0.2
		c0.1,0.5,0.5,0.9,1,0.9c0.2,0,0.4-0.1,0.6-0.2c0.2,0.6,0.7,1.1,1.4,1.1c0.7,0,1.3-0.5,1.4-1.1c0.2,0.1,0.5,0.1,0.8,0.1
		c1.1,0,2-0.9,2-2c0-0.9-0.5-1.6-1.3-1.9c0.1-0.2,0.1-0.4,0.1-0.6c0-0.8-0.6-1.4-1.4-1.4c-0.2,0-0.4,0.1-0.6,0.2c0-0.1,0-0.1,0-0.2
		c0-0.6-0.5-1.1-1.1-1.1c-0.5,0-0.9,0.3-1,0.8c-0.2-0.2-0.5-0.3-0.8-0.3c-0.5,0-0.9,0.2-1.2,0.6c-0.1-0.2-0.4-0.4-0.6-0.4
		c-0.4,0-0.8,0.3-0.8,0.8c0,0.1,0,0.2,0,0.2C74.1,60.9,73.6,61.5,73.6,62.2z"/>
	<circle fill="#FDE5C5" cx="21.2" cy="44.2" r="0.8"/>
	<circle fill="#FDE5C5" cx="24.2" cy="44.2" r="0.8"/>
	<circle fill="#FDE5C5" cx="27.2" cy="44.2" r="0.8"/>
	<circle fill="#FDE5C5" cx="21.2" cy="46.9" r="0.8"/>
	<circle fill="#FDE5C5" cx="24.2" cy="46.9" r="0.8"/>
	<circle fill="#FDE5C5" cx="27.2" cy="46.9" r="0.8"/>
	<circle fill="#FDE5C5" cx="21.2" cy="49.5" r="0.8"/>
	<circle fill="#FDE5C5" cx="24.2" cy="49.5" r="0.8"/>
	<circle fill="#FDE5C5" cx="27.2" cy="49.5" r="0.8"/>
	<circle fill="#FDE5C5" cx="21.2" cy="52.1" r="0.8"/>
	<circle fill="#FDE5C5" cx="24.2" cy="52.1" r="0.8"/>
	<circle fill="#FDE5C5" cx="27.2" cy="52.1" r="0.8"/>
	<circle fill="#FDE5C5" cx="21.2" cy="54.8" r="0.8"/>
	<circle fill="#FDE5C5" cx="24.2" cy="54.8" r="0.8"/>
	<circle fill="#FDE5C5" cx="27.2" cy="54.8" r="0.8"/>
	<circle fill="#FDE5C5" cx="21.2" cy="57.4" r="0.8"/>
	<circle fill="#FDE5C5" cx="24.2" cy="57.4" r="0.8"/>
	<circle fill="#FDE5C5" cx="27.2" cy="57.4" r="0.8"/>
	<circle fill="#FDE5C5" cx="21.2" cy="60.2" r="0.8"/>
	<circle fill="#FDE5C5" cx="24.2" cy="60.2" r="0.8"/>
	<circle fill="#FDE5C5" cx="27.2" cy="60.2" r="0.8"/>
	<circle fill="#FDE5C5" cx="21.2" cy="62.9" r="0.8"/>
	<circle fill="#FDE5C5" cx="24.2" cy="62.9" r="0.8"/>
	<circle fill="#FDE5C5" cx="27.2" cy="62.9" r="0.8"/>
	<circle fill="#FDE5C5" cx="21.2" cy="65.5" r="0.8"/>
	<circle fill="#FDE5C5" cx="24.2" cy="65.5" r="0.8"/>
	<circle fill="#FDE5C5" cx="27.2" cy="65.5" r="0.8"/>
	<circle fill="#FDE5C5" cx="21.2" cy="68.1" r="0.8"/>
	<circle fill="#FDE5C5" cx="24.2" cy="68.1" r="0.8"/>
	<circle fill="#FDE5C5" cx="27.2" cy="68.1" r="0.8"/>
	<circle fill="#FDE5C5" cx="30.2" cy="44.2" r="0.8"/>
	<circle fill="#FDE5C5" cx="30.2" cy="46.9" r="0.8"/>
	<circle fill="#FDE5C5" cx="30.2" cy="49.5" r="0.8"/>
	<circle fill="#FDE5C5" cx="30.2" cy="52.1" r="0.8"/>
	<circle fill="#FDE5C5" cx="30.2" cy="54.8" r="0.8"/>
	<circle fill="#FDE5C5" cx="30.2" cy="57.4" r="0.8"/>
	<circle fill="#FDE5C5" cx="30.2" cy="60.2" r="0.8"/>
	<circle fill="#FDE5C5" cx="30.2" cy="62.9" r="0.8"/>
	<circle fill="#FDE5C5" cx="30.2" cy="65.5" r="0.8"/>
	<circle fill="#FDE5C5" cx="30.2" cy="68.1" r="0.8"/>
</g>
</svg>
